<svg width="19" height="19" viewBox="0 0 19 19" fill="none" xmlns="http://www.w3.org/2000/svg">
<path d="M13.4348 9.69794V13.2604C13.4348 16.2292 12.2473 17.4167 9.2785 17.4167H5.716C2.74725 17.4167 1.55975 16.2292 1.55975 13.2604V9.69794C1.55975 6.72919 2.74725 5.54169 5.716 5.54169H9.2785C12.2473 5.54169 13.4348 6.72919 13.4348 9.69794Z" stroke="#9CA5B3" stroke-width="1.5" stroke-linecap="round" stroke-linejoin="round"/>
<path d="M17.3929 5.93748C17.3929 8.20956 15.6591 10.07 13.4346 10.2679V9.6979C13.4346 6.72915 12.2471 5.54165 9.27831 5.54165H8.70831C8.90623 3.31706 10.7666 1.58331 13.0387 1.58331C15.2475 1.58331 17.0683 3.22206 17.3454 5.35956C17.3771 5.54165 17.3929 5.73956 17.3929 5.93748Z" stroke="#9CA5B3" stroke-width="1.5" stroke-linecap="round" stroke-linejoin="round"/>
</svg>
