<svg width="28" height="28" viewBox="0 0 28 28" fill="none" xmlns="http://www.w3.org/2000/svg">
<path d="M16.4187 2.02185L18.8824 6.99003C19.2184 7.68162 20.1143 8.34498 20.8702 8.47201L25.3357 9.22006C28.1914 9.69994 28.8633 11.7888 26.8055 13.8495L23.3339 17.3498C22.746 17.9426 22.424 19.0858 22.606 19.9045L23.5999 24.2375C24.3838 27.6672 22.578 28.994 19.5683 27.2015L15.3828 24.7033C14.6269 24.2516 13.381 24.2516 12.6111 24.7033L8.42557 27.2015C5.42991 28.994 3.61011 27.6531 4.39402 24.2375L5.38791 19.9045C5.56989 19.0858 5.24793 17.9426 4.65999 17.3498L1.18837 13.8495C-0.8554 11.7888 -0.197472 9.69994 2.65821 9.22006L7.12372 8.47201C7.86564 8.34498 8.76154 7.68162 9.0975 6.99003L11.5612 2.02185C12.9051 -0.67395 15.0888 -0.67395 16.4187 2.02185Z" fill="#FFD600"/>
</svg>
