<svg width="24" height="25" viewBox="0 0 24 25" fill="none" xmlns="http://www.w3.org/2000/svg">
<path d="M20 13.5044C20 18.5044 16.5 21.0044 12.34 22.4544C12.1222 22.5282 11.8855 22.5246 11.67 22.4444C7.5 21.0044 4 18.5044 4 13.5044V6.50436C4 6.23914 4.10536 5.98479 4.29289 5.79725C4.48043 5.60971 4.73478 5.50436 5 5.50436C7 5.50436 9.5 4.30436 11.24 2.78436C11.4519 2.60335 11.7214 2.50391 12 2.50391C12.2786 2.50391 12.5481 2.60335 12.76 2.78436C14.51 4.31436 17 5.50436 19 5.50436C19.2652 5.50436 19.5196 5.60971 19.7071 5.79725C19.8946 5.98479 20 6.23914 20 6.50436V13.5044Z" stroke="#4790FF" stroke-width="2" stroke-linecap="round" stroke-linejoin="round"/>
<path d="M9 12.4961L11 14.4961L15 10.4961" stroke="#4790FF" stroke-width="2" stroke-linecap="round" stroke-linejoin="round"/>
</svg>
