<svg width="17" height="16" viewBox="0 0 17 16" fill="none" xmlns="http://www.w3.org/2000/svg">
<path d="M11.1654 14V12.6667C11.1654 11.9594 10.8844 11.2811 10.3843 10.781C9.88422 10.281 9.20594 10 8.4987 10H4.4987C3.79145 10 3.11318 10.281 2.61308 10.781C2.11298 11.2811 1.83203 11.9594 1.83203 12.6667V14" stroke="white" stroke-linecap="round" stroke-linejoin="round"/>
<path d="M6.4987 7.33333C7.97146 7.33333 9.16536 6.13943 9.16536 4.66667C9.16536 3.19391 7.97146 2 6.4987 2C5.02594 2 3.83203 3.19391 3.83203 4.66667C3.83203 6.13943 5.02594 7.33333 6.4987 7.33333Z" stroke="white" stroke-linecap="round" stroke-linejoin="round"/>
<path d="M13.166 5.33203V9.33203" stroke="white" stroke-linecap="round" stroke-linejoin="round"/>
<path d="M15.166 7.33203H11.166" stroke="white" stroke-linecap="round" stroke-linejoin="round"/>
</svg>
