<svg width="16" height="16" viewBox="0 0 16 16" fill="none" xmlns="http://www.w3.org/2000/svg">
<path d="M2.77995 10.2L5.79995 13.22C7.03995 14.46 9.05328 14.46 10.2999 13.22L13.2266 10.2934C14.4666 9.05337 14.4666 7.04003 13.2266 5.79337L10.1999 2.78003C9.56662 2.1467 8.69328 1.8067 7.79995 1.85337L4.46662 2.01337C3.13328 2.07337 2.07328 3.13337 2.00662 4.46003L1.84662 7.79337C1.80662 8.69337 2.14662 9.5667 2.77995 10.2Z" stroke="#575E6A" stroke-width="1.5" stroke-linecap="round" stroke-linejoin="round"/>
<path d="M6.33323 8.00002C7.25371 8.00002 7.9999 7.25383 7.9999 6.33335C7.9999 5.41288 7.25371 4.66669 6.33323 4.66669C5.41276 4.66669 4.66656 5.41288 4.66656 6.33335C4.66656 7.25383 5.41276 8.00002 6.33323 8.00002Z" stroke="#575E6A" stroke-width="1.5" stroke-linecap="round"/>
</svg>
